# Wavefront OBJ file automatically generated by Tiled2Unity

# Vertices (Count = 320)
v -256 -336 0
v -272 -336 0
v -272 -320 0
v -256 -320 0
v -288 -336 0
v -288 -320 0
v -304 -336 0
v -304 -320 0
v -320 -336 0
v -320 -320 0
v -336 -336 0
v -336 -320 0
v -352 -336 0
v -352 -320 0
v -368 -336 0
v -368 -320 0
v -384 -336 0
v -384 -320 0
v -400 -336 0
v -400 -320 0
v -416 -336 0
v -416 -320 0
v -432 -336 0
v -432 -320 0
v -448 -336 0
v -448 -320 0
v -464 -336 0
v -464 -320 0
v -480 -336 0
v -480 -320 0
v -496 -336 0
v -496 -320 0
v -512 -336 0
v -512 -320 0
v -528 -336 0
v -528 -320 0
v -544 -336 0
v -544 -320 0
v -560 -336 0
v -560 -320 0
v -256 -352 0
v -272 -352 0
v -288 -352 0
v -304 -352 0
v -320 -352 0
v -336 -352 0
v -352 -352 0
v -368 -352 0
v -384 -352 0
v -400 -352 0
v -416 -352 0
v -432 -352 0
v -448 -352 0
v -464 -352 0
v -480 -352 0
v -496 -352 0
v -512 -352 0
v -528 -352 0
v -544 -352 0
v -560 -352 0
v -256 -368 0
v -272 -368 0
v -288 -368 0
v -304 -368 0
v -320 -368 0
v -336 -368 0
v -352 -368 0
v -368 -368 0
v -384 -368 0
v -400 -368 0
v -416 -368 0
v -432 -368 0
v -448 -368 0
v -464 -368 0
v -480 -368 0
v -496 -368 0
v -512 -368 0
v -528 -368 0
v -544 -368 0
v -560 -368 0
v -256 -384 0
v -272 -384 0
v -288 -384 0
v -304 -384 0
v -320 -384 0
v -336 -384 0
v -352 -384 0
v -368 -384 0
v -384 -384 0
v -400 -384 0
v -416 -384 0
v -432 -384 0
v -448 -384 0
v -464 -384 0
v -480 -384 0
v -496 -384 0
v -512 -384 0
v -528 -384 0
v -544 -384 0
v -560 -384 0
v -256 -400 0
v -272 -400 0
v -288 -400 0
v -304 -400 0
v -320 -400 0
v -336 -400 0
v -352 -400 0
v -368 -400 0
v -384 -400 0
v -400 -400 0
v -416 -400 0
v -432 -400 0
v -448 -400 0
v -464 -400 0
v -480 -400 0
v -496 -400 0
v -512 -400 0
v -528 -400 0
v -544 -400 0
v -560 -400 0
v -256 -416 0
v -272 -416 0
v -288 -416 0
v -304 -416 0
v -320 -416 0
v -336 -416 0
v -352 -416 0
v -368 -416 0
v -384 -416 0
v -400 -416 0
v -416 -416 0
v -432 -416 0
v -448 -416 0
v -464 -416 0
v -480 -416 0
v -496 -416 0
v -512 -416 0
v -528 -416 0
v -544 -416 0
v -560 -416 0
v -256 -432 0
v -272 -432 0
v -288 -432 0
v -304 -432 0
v -320 -432 0
v -336 -432 0
v -352 -432 0
v -368 -432 0
v -384 -432 0
v -400 -432 0
v -416 -432 0
v -432 -432 0
v -448 -432 0
v -464 -432 0
v -480 -432 0
v -496 -432 0
v -512 -432 0
v -528 -432 0
v -544 -432 0
v -560 -432 0
v -256 -448 0
v -272 -448 0
v -288 -448 0
v -304 -448 0
v -320 -448 0
v -336 -448 0
v -352 -448 0
v -368 -448 0
v -384 -448 0
v -400 -448 0
v -416 -448 0
v -432 -448 0
v -448 -448 0
v -464 -448 0
v -480 -448 0
v -496 -448 0
v -512 -448 0
v -528 -448 0
v -544 -448 0
v -560 -448 0
v -256 -464 0
v -272 -464 0
v -288 -464 0
v -304 -464 0
v -320 -464 0
v -336 -464 0
v -352 -464 0
v -368 -464 0
v -384 -464 0
v -400 -464 0
v -416 -464 0
v -432 -464 0
v -448 -464 0
v -464 -464 0
v -480 -464 0
v -496 -464 0
v -512 -464 0
v -528 -464 0
v -544 -464 0
v -560 -464 0
v -256 -480 0
v -272 -480 0
v -288 -480 0
v -304 -480 0
v -320 -480 0
v -336 -480 0
v -352 -480 0
v -368 -480 0
v -384 -480 0
v -400 -480 0
v -416 -480 0
v -432 -480 0
v -448 -480 0
v -464 -480 0
v -480 -480 0
v -496 -480 0
v -512 -480 0
v -528 -480 0
v -544 -480 0
v -560 -480 0
v -256 -496 0
v -272 -496 0
v -288 -496 0
v -304 -496 0
v -320 -496 0
v -336 -496 0
v -352 -496 0
v -368 -496 0
v -384 -496 0
v -400 -496 0
v -416 -496 0
v -432 -496 0
v -448 -496 0
v -464 -496 0
v -480 -496 0
v -496 -496 0
v -512 -496 0
v -528 -496 0
v -544 -496 0
v -560 -496 0
v -256 -512 0
v -272 -512 0
v -288 -512 0
v -304 -512 0
v -320 -512 0
v -336 -512 0
v -352 -512 0
v -368 -512 0
v -384 -512 0
v -400 -512 0
v -416 -512 0
v -432 -512 0
v -448 -512 0
v -464 -512 0
v -480 -512 0
v -496 -512 0
v -512 -512 0
v -528 -512 0
v -544 -512 0
v -560 -512 0
v -256 -528 0
v -272 -528 0
v -288 -528 0
v -304 -528 0
v -320 -528 0
v -336 -528 0
v -352 -528 0
v -368 -528 0
v -384 -528 0
v -400 -528 0
v -416 -528 0
v -432 -528 0
v -448 -528 0
v -464 -528 0
v -480 -528 0
v -496 -528 0
v -512 -528 0
v -528 -528 0
v -544 -528 0
v -560 -528 0
v -256 -544 0
v -272 -544 0
v -288 -544 0
v -304 -544 0
v -320 -544 0
v -336 -544 0
v -352 -544 0
v -368 -544 0
v -384 -544 0
v -400 -544 0
v -416 -544 0
v -432 -544 0
v -448 -544 0
v -464 -544 0
v -480 -544 0
v -496 -544 0
v -512 -544 0
v -528 -544 0
v -544 -544 0
v -560 -544 0
v -256 -560 0
v -272 -560 0
v -288 -560 0
v -304 -560 0
v -320 -560 0
v -336 -560 0
v -352 -560 0
v -368 -560 0
v -384 -560 0
v -400 -560 0
v -416 -560 0
v -432 -560 0
v -448 -560 0
v -464 -560 0
v -480 -560 0
v -496 -560 0
v -512 -560 0
v -528 -560 0
v -544 -560 0
v -560 -560 0

# Texture Coorindates (Count = 136)
vt 0.1501221 0.4001221
vt 0.1998779 0.4001221
vt 0.1998779 0.4498779
vt 0.1501221 0.4498779
vt 0.05012207 0.2001221
vt 0.09987793 0.2001221
vt 0.09987793 0.2498779
vt 0.05012207 0.2498779
vt 0.1001221 0.4001221
vt 0.1498779 0.4001221
vt 0.1498779 0.4498779
vt 0.1001221 0.4498779
vt 0.1501221 0.3001221
vt 0.1998779 0.3001221
vt 0.1998779 0.3498779
vt 0.1501221 0.3498779
vt 0.2001221 0.4501221
vt 0.2498779 0.4501221
vt 0.2498779 0.4998779
vt 0.2001221 0.4998779
vt 0.2501221 0.4501221
vt 0.2998779 0.4501221
vt 0.2998779 0.4998779
vt 0.2501221 0.4998779
vt 0.3001221 0.4501221
vt 0.3498779 0.4501221
vt 0.3498779 0.4998779
vt 0.3001221 0.4998779
vt 0.3501221 0.4501221
vt 0.3998779 0.4501221
vt 0.3998779 0.4998779
vt 0.3501221 0.4998779
vt 0.0001220703 0.3001221
vt 0.04987793 0.3001221
vt 0.04987793 0.3498779
vt 0.0001220703 0.3498779
vt 0.2001221 0.4001221
vt 0.2498779 0.4001221
vt 0.2498779 0.4498779
vt 0.2001221 0.4498779
vt 0.2501221 0.4001221
vt 0.2998779 0.4001221
vt 0.2998779 0.4498779
vt 0.2501221 0.4498779
vt 0.3001221 0.4001221
vt 0.3498779 0.4001221
vt 0.3498779 0.4498779
vt 0.3001221 0.4498779
vt 0.3501221 0.4001221
vt 0.3998779 0.4001221
vt 0.3998779 0.4498779
vt 0.3501221 0.4498779
vt 0.3751221 0.7084554
vt 0.4061279 0.7084554
vt 0.4061279 0.7498779
vt 0.3751221 0.7498779
vt 0.4063721 0.7084554
vt 0.4373779 0.7084554
vt 0.4373779 0.7498779
vt 0.4063721 0.7498779
vt 0.4376221 0.7084554
vt 0.4686279 0.7084554
vt 0.4686279 0.7498779
vt 0.4376221 0.7498779
vt 0.4688721 0.7084554
vt 0.4998779 0.7084554
vt 0.4998779 0.7498779
vt 0.4688721 0.7498779
vt 0.3751221 0.6667888
vt 0.4061279 0.6667888
vt 0.4061279 0.7082112
vt 0.3751221 0.7082112
vt 0.4063721 0.6667888
vt 0.4373779 0.6667888
vt 0.4373779 0.7082112
vt 0.4063721 0.7082112
vt 0.4376221 0.6667888
vt 0.4686279 0.6667888
vt 0.4686279 0.7082112
vt 0.4376221 0.7082112
vt 0.4688721 0.6667888
vt 0.4998779 0.6667888
vt 0.4998779 0.7082112
vt 0.4688721 0.7082112
vt 0.4688721 0.6251221
vt 0.4998779 0.6251221
vt 0.4998779 0.6665446
vt 0.4688721 0.6665446
vt 0.4688721 0.5834554
vt 0.4998779 0.5834554
vt 0.4998779 0.6248779
vt 0.4688721 0.6248779
vt 0.3751221 0.6251221
vt 0.4061279 0.6251221
vt 0.4061279 0.6665446
vt 0.3751221 0.6665446
vt 0.4063721 0.6251221
vt 0.4373779 0.6251221
vt 0.4373779 0.6665446
vt 0.4063721 0.6665446
vt 0.4376221 0.6251221
vt 0.4686279 0.6251221
vt 0.4686279 0.6665446
vt 0.4376221 0.6665446
vt 0.4688721 0.5417888
vt 0.4998779 0.5417888
vt 0.4998779 0.5832112
vt 0.4688721 0.5832112
vt 0.3751221 0.5834554
vt 0.4061279 0.5834554
vt 0.4061279 0.6248779
vt 0.3751221 0.6248779
vt 0.4063721 0.5834554
vt 0.4373779 0.5834554
vt 0.4373779 0.6248779
vt 0.4063721 0.6248779
vt 0.4376221 0.5834554
vt 0.4686279 0.5834554
vt 0.4686279 0.6248779
vt 0.4376221 0.6248779
vt 0.4688721 0.5001221
vt 0.4998779 0.5001221
vt 0.4998779 0.5415446
vt 0.4688721 0.5415446
vt 0.1501221 0.4501221
vt 0.1998779 0.4501221
vt 0.1998779 0.4998779
vt 0.1501221 0.4998779
vt 0.05012207 0.3501221
vt 0.09987793 0.3501221
vt 0.09987793 0.3998779
vt 0.05012207 0.3998779
vt 0.1001221 0.4501221
vt 0.1498779 0.4501221
vt 0.1498779 0.4998779
vt 0.1001221 0.4998779

# Normal
vn 0 0 -1

# Groups (Count = 2)
g mesh_[00]_[00]
f  1/1/1  2/2/1  3/3/1  4/4/1 
f  2/5/1  5/6/1  6/7/1  3/8/1 
f  5/5/1  7/6/1  8/7/1  6/8/1 
f  7/5/1  9/6/1  10/7/1  8/8/1 
f  9/5/1  11/6/1  12/7/1  10/8/1 
f  11/5/1  13/6/1  14/7/1  12/8/1 
f  13/5/1  15/6/1  16/7/1  14/8/1 
f  15/5/1  17/6/1  18/7/1  16/8/1 
f  17/5/1  19/6/1  20/7/1  18/8/1 
f  19/5/1  21/6/1  22/7/1  20/8/1 
f  21/5/1  23/6/1  24/7/1  22/8/1 
f  23/5/1  25/6/1  26/7/1  24/8/1 
f  25/5/1  27/6/1  28/7/1  26/8/1 
f  27/5/1  29/6/1  30/7/1  28/8/1 
f  29/5/1  31/6/1  32/7/1  30/8/1 
f  31/5/1  33/6/1  34/7/1  32/8/1 
f  33/5/1  35/6/1  36/7/1  34/8/1 
f  35/5/1  37/6/1  38/7/1  36/8/1 
f  37/9/1  39/10/1  40/11/1  38/12/1 
f  41/13/1  42/14/1  2/15/1  1/16/1 
f  42/17/1  43/18/1  5/19/1  2/20/1 
f  43/21/1  44/22/1  7/23/1  5/24/1 
f  44/25/1  45/26/1  9/27/1  7/28/1 
f  45/29/1  46/30/1  11/31/1  9/32/1 
f  46/17/1  47/18/1  13/19/1  11/20/1 
f  47/21/1  48/22/1  15/23/1  13/24/1 
f  48/25/1  49/26/1  17/27/1  15/28/1 
f  49/29/1  50/30/1  19/31/1  17/32/1 
f  50/17/1  51/18/1  21/19/1  19/20/1 
f  51/21/1  52/22/1  23/23/1  21/24/1 
f  52/25/1  53/26/1  25/27/1  23/28/1 
f  53/29/1  54/30/1  27/31/1  25/32/1 
f  54/17/1  55/18/1  29/19/1  27/20/1 
f  55/21/1  56/22/1  31/23/1  29/24/1 
f  56/25/1  57/26/1  33/27/1  31/28/1 
f  57/29/1  58/30/1  35/31/1  33/32/1 
f  58/17/1  59/18/1  37/19/1  35/20/1 
f  59/33/1  60/34/1  39/35/1  37/36/1 
f  61/13/1  62/14/1  42/15/1  41/16/1 
f  62/37/1  63/38/1  43/39/1  42/40/1 
f  63/41/1  64/42/1  44/43/1  43/44/1 
f  64/45/1  65/46/1  45/47/1  44/48/1 
f  65/49/1  66/50/1  46/51/1  45/52/1 
f  66/37/1  67/38/1  47/39/1  46/40/1 
f  67/41/1  68/42/1  48/43/1  47/44/1 
f  68/45/1  69/46/1  49/47/1  48/48/1 
f  69/49/1  70/50/1  50/51/1  49/52/1 
f  70/37/1  71/38/1  51/39/1  50/40/1 
f  71/41/1  72/42/1  52/43/1  51/44/1 
f  72/45/1  73/46/1  53/47/1  52/48/1 
f  73/49/1  74/50/1  54/51/1  53/52/1 
f  74/37/1  75/38/1  55/39/1  54/40/1 
f  75/41/1  76/42/1  56/43/1  55/44/1 
f  76/45/1  77/46/1  57/47/1  56/48/1 
f  77/49/1  78/50/1  58/51/1  57/52/1 
f  78/37/1  79/38/1  59/39/1  58/40/1 
f  79/33/1  80/34/1  60/35/1  59/36/1 
f  81/13/1  82/14/1  62/15/1  61/16/1 
f  99/33/1  100/34/1  80/35/1  79/36/1 
f  101/13/1  102/14/1  82/15/1  81/16/1 
f  119/33/1  120/34/1  100/35/1  99/36/1 
f  121/13/1  122/14/1  102/15/1  101/16/1 
f  139/33/1  140/34/1  120/35/1  119/36/1 
f  141/13/1  142/14/1  122/15/1  121/16/1 
f  159/33/1  160/34/1  140/35/1  139/36/1 
f  161/13/1  162/14/1  142/15/1  141/16/1 
f  179/33/1  180/34/1  160/35/1  159/36/1 
f  181/13/1  182/14/1  162/15/1  161/16/1 
f  199/33/1  200/34/1  180/35/1  179/36/1 
f  201/13/1  202/14/1  182/15/1  181/16/1 
f  219/33/1  220/34/1  200/35/1  199/36/1 
f  221/13/1  222/14/1  202/15/1  201/16/1 
f  239/33/1  240/34/1  220/35/1  219/36/1 
f  241/13/1  242/14/1  222/15/1  221/16/1 
f  259/33/1  260/34/1  240/35/1  239/36/1 
f  261/13/1  262/14/1  242/15/1  241/16/1 
f  279/33/1  280/34/1  260/35/1  259/36/1 
f  281/13/1  282/14/1  262/15/1  261/16/1 
f  299/33/1  300/34/1  280/35/1  279/36/1 
f  301/125/1  302/126/1  282/127/1  281/128/1 
f  302/129/1  303/130/1  283/131/1  282/132/1 
f  303/129/1  304/130/1  284/131/1  283/132/1 
f  304/129/1  305/130/1  285/131/1  284/132/1 
f  305/129/1  306/130/1  286/131/1  285/132/1 
f  306/129/1  307/130/1  287/131/1  286/132/1 
f  307/129/1  308/130/1  288/131/1  287/132/1 
f  308/129/1  309/130/1  289/131/1  288/132/1 
f  309/129/1  310/130/1  290/131/1  289/132/1 
f  310/129/1  311/130/1  291/131/1  290/132/1 
f  311/129/1  312/130/1  292/131/1  291/132/1 
f  312/129/1  313/130/1  293/131/1  292/132/1 
f  313/129/1  314/130/1  294/131/1  293/132/1 
f  314/129/1  315/130/1  295/131/1  294/132/1 
f  315/129/1  316/130/1  296/131/1  295/132/1 
f  316/129/1  317/130/1  297/131/1  296/132/1 
f  317/129/1  318/130/1  298/131/1  297/132/1 
f  318/129/1  319/130/1  299/131/1  298/132/1 
f  319/133/1  320/134/1  300/135/1  299/136/1 
g mesh_[00]_[01]
f  82/53/1  83/54/1  63/55/1  62/56/1 
f  83/57/1  84/58/1  64/59/1  63/60/1 
f  84/61/1  85/62/1  65/63/1  64/64/1 
f  85/65/1  86/66/1  66/67/1  65/68/1 
f  86/53/1  87/54/1  67/55/1  66/56/1 
f  87/57/1  88/58/1  68/59/1  67/60/1 
f  88/53/1  89/54/1  69/55/1  68/56/1 
f  89/57/1  90/58/1  70/59/1  69/60/1 
f  90/53/1  91/54/1  71/55/1  70/56/1 
f  91/57/1  92/58/1  72/59/1  71/60/1 
f  92/53/1  93/54/1  73/55/1  72/56/1 
f  93/57/1  94/58/1  74/59/1  73/60/1 
f  94/53/1  95/54/1  75/55/1  74/56/1 
f  95/57/1  96/58/1  76/59/1  75/60/1 
f  96/53/1  97/54/1  77/55/1  76/56/1 
f  97/57/1  98/58/1  78/59/1  77/60/1 
f  98/57/1  99/58/1  79/59/1  78/60/1 
f  102/69/1  103/70/1  83/71/1  82/72/1 
f  103/73/1  104/74/1  84/75/1  83/76/1 
f  104/77/1  105/78/1  85/79/1  84/80/1 
f  105/81/1  106/82/1  86/83/1  85/84/1 
f  106/69/1  107/70/1  87/71/1  86/72/1 
f  107/73/1  108/74/1  88/75/1  87/76/1 
f  108/69/1  109/70/1  89/71/1  88/72/1 
f  109/73/1  110/74/1  90/75/1  89/76/1 
f  110/69/1  111/70/1  91/71/1  90/72/1 
f  111/73/1  112/74/1  92/75/1  91/76/1 
f  112/69/1  113/70/1  93/71/1  92/72/1 
f  113/73/1  114/74/1  94/75/1  93/76/1 
f  114/69/1  115/70/1  95/71/1  94/72/1 
f  115/73/1  116/74/1  96/75/1  95/76/1 
f  116/69/1  117/70/1  97/71/1  96/72/1 
f  117/73/1  118/74/1  98/75/1  97/76/1 
f  118/73/1  119/74/1  99/75/1  98/76/1 
f  122/53/1  123/54/1  103/55/1  102/56/1 
f  123/57/1  124/58/1  104/59/1  103/60/1 
f  124/53/1  125/54/1  105/55/1  104/56/1 
f  125/57/1  126/58/1  106/59/1  105/60/1 
f  126/53/1  127/54/1  107/55/1  106/56/1 
f  127/57/1  128/58/1  108/59/1  107/60/1 
f  128/53/1  129/54/1  109/55/1  108/56/1 
f  129/57/1  130/58/1  110/59/1  109/60/1 
f  130/53/1  131/54/1  111/55/1  110/56/1 
f  131/57/1  132/58/1  112/59/1  111/60/1 
f  132/53/1  133/54/1  113/55/1  112/56/1 
f  133/57/1  134/58/1  114/59/1  113/60/1 
f  134/53/1  135/54/1  115/55/1  114/56/1 
f  135/57/1  136/58/1  116/59/1  115/60/1 
f  136/53/1  137/54/1  117/55/1  116/56/1 
f  137/57/1  138/58/1  118/59/1  117/60/1 
f  138/65/1  139/66/1  119/67/1  118/68/1 
f  142/69/1  143/70/1  123/71/1  122/72/1 
f  143/73/1  144/74/1  124/75/1  123/76/1 
f  144/69/1  145/70/1  125/71/1  124/72/1 
f  145/73/1  146/74/1  126/75/1  125/76/1 
f  146/69/1  147/70/1  127/71/1  126/72/1 
f  147/73/1  148/74/1  128/75/1  127/76/1 
f  148/69/1  149/70/1  129/71/1  128/72/1 
f  149/73/1  150/74/1  130/75/1  129/76/1 
f  150/69/1  151/70/1  131/71/1  130/72/1 
f  151/73/1  152/74/1  132/75/1  131/76/1 
f  152/69/1  153/70/1  133/71/1  132/72/1 
f  153/73/1  154/74/1  134/75/1  133/76/1 
f  154/69/1  155/70/1  135/71/1  134/72/1 
f  155/73/1  156/74/1  136/75/1  135/76/1 
f  156/69/1  157/70/1  137/71/1  136/72/1 
f  157/73/1  158/74/1  138/75/1  137/76/1 
f  158/81/1  159/82/1  139/83/1  138/84/1 
f  162/53/1  163/54/1  143/55/1  142/56/1 
f  163/57/1  164/58/1  144/59/1  143/60/1 
f  164/61/1  165/62/1  145/63/1  144/64/1 
f  165/65/1  166/66/1  146/67/1  145/68/1 
f  166/53/1  167/54/1  147/55/1  146/56/1 
f  167/57/1  168/58/1  148/59/1  147/60/1 
f  168/61/1  169/62/1  149/63/1  148/64/1 
f  169/65/1  170/66/1  150/67/1  149/68/1 
f  170/53/1  171/54/1  151/55/1  150/56/1 
f  171/57/1  172/58/1  152/59/1  151/60/1 
f  172/61/1  173/62/1  153/63/1  152/64/1 
f  173/65/1  174/66/1  154/67/1  153/68/1 
f  174/53/1  175/54/1  155/55/1  154/56/1 
f  175/57/1  176/58/1  156/59/1  155/60/1 
f  176/61/1  177/62/1  157/63/1  156/64/1 
f  177/65/1  178/66/1  158/67/1  157/68/1 
f  178/85/1  179/86/1  159/87/1  158/88/1 
f  182/69/1  183/70/1  163/71/1  162/72/1 
f  183/73/1  184/74/1  164/75/1  163/76/1 
f  184/77/1  185/78/1  165/79/1  164/80/1 
f  185/81/1  186/82/1  166/83/1  165/84/1 
f  186/69/1  187/70/1  167/71/1  166/72/1 
f  187/73/1  188/74/1  168/75/1  167/76/1 
f  188/77/1  189/78/1  169/79/1  168/80/1 
f  189/81/1  190/82/1  170/83/1  169/84/1 
f  190/69/1  191/70/1  171/71/1  170/72/1 
f  191/73/1  192/74/1  172/75/1  171/76/1 
f  192/77/1  193/78/1  173/79/1  172/80/1 
f  193/81/1  194/82/1  174/83/1  173/84/1 
f  194/69/1  195/70/1  175/71/1  174/72/1 
f  195/73/1  196/74/1  176/75/1  175/76/1 
f  196/77/1  197/78/1  177/79/1  176/80/1 
f  197/81/1  198/82/1  178/83/1  177/84/1 
f  198/89/1  199/90/1  179/91/1  178/92/1 
f  202/93/1  203/94/1  183/95/1  182/96/1 
f  203/97/1  204/98/1  184/99/1  183/100/1 
f  204/101/1  205/102/1  185/103/1  184/104/1 
f  205/85/1  206/86/1  186/87/1  185/88/1 
f  206/93/1  207/94/1  187/95/1  186/96/1 
f  207/97/1  208/98/1  188/99/1  187/100/1 
f  208/101/1  209/102/1  189/103/1  188/104/1 
f  209/85/1  210/86/1  190/87/1  189/88/1 
f  210/93/1  211/94/1  191/95/1  190/96/1 
f  211/97/1  212/98/1  192/99/1  191/100/1 
f  212/101/1  213/102/1  193/103/1  192/104/1 
f  213/85/1  214/86/1  194/87/1  193/88/1 
f  214/93/1  215/94/1  195/95/1  194/96/1 
f  215/97/1  216/98/1  196/99/1  195/100/1 
f  216/101/1  217/102/1  197/103/1  196/104/1 
f  217/85/1  218/86/1  198/87/1  197/88/1 
f  218/105/1  219/106/1  199/107/1  198/108/1 
f  222/109/1  223/110/1  203/111/1  202/112/1 
f  223/113/1  224/114/1  204/115/1  203/116/1 
f  224/117/1  225/118/1  205/119/1  204/120/1 
f  225/89/1  226/90/1  206/91/1  205/92/1 
f  226/109/1  227/110/1  207/111/1  206/112/1 
f  227/113/1  228/114/1  208/115/1  207/116/1 
f  228/117/1  229/118/1  209/119/1  208/120/1 
f  229/89/1  230/90/1  210/91/1  209/92/1 
f  230/109/1  231/110/1  211/111/1  210/112/1 
f  231/113/1  232/114/1  212/115/1  211/116/1 
f  232/117/1  233/118/1  213/119/1  212/120/1 
f  233/89/1  234/90/1  214/91/1  213/92/1 
f  234/109/1  235/110/1  215/111/1  214/112/1 
f  235/113/1  236/114/1  216/115/1  215/116/1 
f  236/117/1  237/118/1  217/119/1  216/120/1 
f  237/89/1  238/90/1  218/91/1  217/92/1 
f  238/121/1  239/122/1  219/123/1  218/124/1 
f  242/53/1  243/54/1  223/55/1  222/56/1 
f  243/57/1  244/58/1  224/59/1  223/60/1 
f  244/61/1  245/62/1  225/63/1  224/64/1 
f  245/65/1  246/66/1  226/67/1  225/68/1 
f  246/53/1  247/54/1  227/55/1  226/56/1 
f  247/57/1  248/58/1  228/59/1  227/60/1 
f  248/61/1  249/62/1  229/63/1  228/64/1 
f  249/65/1  250/66/1  230/67/1  229/68/1 
f  250/53/1  251/54/1  231/55/1  230/56/1 
f  251/57/1  252/58/1  232/59/1  231/60/1 
f  252/61/1  253/62/1  233/63/1  232/64/1 
f  253/65/1  254/66/1  234/67/1  233/68/1 
f  254/53/1  255/54/1  235/55/1  234/56/1 
f  255/57/1  256/58/1  236/59/1  235/60/1 
f  256/61/1  257/62/1  237/63/1  236/64/1 
f  257/65/1  258/66/1  238/67/1  237/68/1 
f  258/65/1  259/66/1  239/67/1  238/68/1 
f  262/69/1  263/70/1  243/71/1  242/72/1 
f  263/73/1  264/74/1  244/75/1  243/76/1 
f  264/77/1  265/78/1  245/79/1  244/80/1 
f  265/81/1  266/82/1  246/83/1  245/84/1 
f  266/69/1  267/70/1  247/71/1  246/72/1 
f  267/73/1  268/74/1  248/75/1  247/76/1 
f  268/77/1  269/78/1  249/79/1  248/80/1 
f  269/81/1  270/82/1  250/83/1  249/84/1 
f  270/69/1  271/70/1  251/71/1  250/72/1 
f  271/73/1  272/74/1  252/75/1  251/76/1 
f  272/77/1  273/78/1  253/79/1  252/80/1 
f  273/81/1  274/82/1  254/83/1  253/84/1 
f  274/69/1  275/70/1  255/71/1  254/72/1 
f  275/73/1  276/74/1  256/75/1  255/76/1 
f  276/77/1  277/78/1  257/79/1  256/80/1 
f  277/81/1  278/82/1  258/83/1  257/84/1 
f  278/81/1  279/82/1  259/83/1  258/84/1 
f  282/53/1  283/54/1  263/55/1  262/56/1 
f  283/57/1  284/58/1  264/59/1  263/60/1 
f  284/61/1  285/62/1  265/63/1  264/64/1 
f  285/65/1  286/66/1  266/67/1  265/68/1 
f  286/53/1  287/54/1  267/55/1  266/56/1 
f  287/57/1  288/58/1  268/59/1  267/60/1 
f  288/61/1  289/62/1  269/63/1  268/64/1 
f  289/65/1  290/66/1  270/67/1  269/68/1 
f  290/53/1  291/54/1  271/55/1  270/56/1 
f  291/57/1  292/58/1  272/59/1  271/60/1 
f  292/61/1  293/62/1  273/63/1  272/64/1 
f  293/65/1  294/66/1  274/67/1  273/68/1 
f  294/53/1  295/54/1  275/55/1  274/56/1 
f  295/57/1  296/58/1  276/59/1  275/60/1 
f  296/61/1  297/62/1  277/63/1  276/64/1 
f  297/65/1  298/66/1  278/67/1  277/68/1 
f  298/65/1  299/66/1  279/67/1  278/68/1 
